<mxfile host="Electron" agent="Mozilla/5.0 (Windows NT 10.0; Win64; x64) AppleWebKit/537.36 (KHTML, like Gecko) draw.io/24.7.5 Chrome/126.0.6478.183 Electron/31.3.0 Safari/537.36" version="24.7.5">
  <diagram id="C5RBs43oDa-KdzZeNtuy" name="Page-1">
    <mxGraphModel dx="741" dy="944" grid="0" gridSize="10" guides="1" tooltips="1" connect="1" arrows="1" fold="1" page="1" pageScale="1" pageWidth="2000" pageHeight="1500" background="#ffffff" math="0" shadow="0">
      <root>
        <mxCell id="WIyWlLk6GJQsqaUBKTNV-0" />
        <mxCell id="WIyWlLk6GJQsqaUBKTNV-1" parent="WIyWlLk6GJQsqaUBKTNV-0" />
        <mxCell id="PawS9p-MmPTrc8zZ3Hex-0" value="CONTACT" style="swimlane;fontStyle=1;childLayout=stackLayout;horizontal=1;startSize=59;horizontalStack=0;resizeParent=1;resizeParentMax=0;resizeLast=0;collapsible=1;marginBottom=0;whiteSpace=wrap;html=1;sketch=1;curveFitting=1;jiggle=2;fontSize=20;strokeColor=#000000;" parent="WIyWlLk6GJQsqaUBKTNV-1" vertex="1">
          <mxGeometry x="198" y="122" width="224" height="312" as="geometry" />
        </mxCell>
        <mxCell id="PawS9p-MmPTrc8zZ3Hex-1" value="&lt;span style=&quot;font-size: 19px;&quot;&gt;&lt;font color=&quot;#000000&quot;&gt;&amp;nbsp;ID&amp;nbsp;&lt;/font&gt;&lt;/span&gt;" style="text;strokeColor=#000000;fillColor=none;align=left;verticalAlign=middle;spacingLeft=4;spacingRight=4;overflow=hidden;points=[[0,0.5],[1,0.5]];portConstraint=eastwest;rotatable=0;whiteSpace=wrap;html=1;sketch=1;curveFitting=1;jiggle=2;fontSize=19;fontStyle=1" parent="PawS9p-MmPTrc8zZ3Hex-0" vertex="1">
          <mxGeometry y="59" width="224" height="42" as="geometry" />
        </mxCell>
        <mxCell id="PawS9p-MmPTrc8zZ3Hex-2" value="username&amp;nbsp;" style="text;strokeColor=#000000;fillColor=none;align=left;verticalAlign=middle;spacingLeft=4;spacingRight=4;overflow=hidden;points=[[0,0.5],[1,0.5]];portConstraint=eastwest;rotatable=0;whiteSpace=wrap;html=1;sketch=1;curveFitting=1;jiggle=2;fontSize=19;fontStyle=1;fontColor=#000000;" parent="PawS9p-MmPTrc8zZ3Hex-0" vertex="1">
          <mxGeometry y="101" width="224" height="43" as="geometry" />
        </mxCell>
        <mxCell id="PawS9p-MmPTrc8zZ3Hex-3" value="email&amp;nbsp;" style="text;strokeColor=#000000;fillColor=none;align=left;verticalAlign=middle;spacingLeft=4;spacingRight=4;overflow=hidden;points=[[0,0.5],[1,0.5]];portConstraint=eastwest;rotatable=0;whiteSpace=wrap;html=1;sketch=1;curveFitting=1;jiggle=2;fontSize=19;fontStyle=1;fontColor=#000000;" parent="PawS9p-MmPTrc8zZ3Hex-0" vertex="1">
          <mxGeometry y="144" width="224" height="44" as="geometry" />
        </mxCell>
        <mxCell id="PawS9p-MmPTrc8zZ3Hex-4" value="content&amp;nbsp;" style="text;strokeColor=#000000;fillColor=none;align=left;verticalAlign=middle;spacingLeft=4;spacingRight=4;overflow=hidden;points=[[0,0.5],[1,0.5]];portConstraint=eastwest;rotatable=0;whiteSpace=wrap;html=1;sketch=1;curveFitting=1;jiggle=2;fontSize=19;fontStyle=1;fontColor=#000000;" parent="PawS9p-MmPTrc8zZ3Hex-0" vertex="1">
          <mxGeometry y="188" width="224" height="34" as="geometry" />
        </mxCell>
        <mxCell id="PawS9p-MmPTrc8zZ3Hex-5" value="status&amp;nbsp;" style="text;strokeColor=#000000;fillColor=none;align=left;verticalAlign=middle;spacingLeft=4;spacingRight=4;overflow=hidden;points=[[0,0.5],[1,0.5]];portConstraint=eastwest;rotatable=0;whiteSpace=wrap;html=1;sketch=1;curveFitting=1;jiggle=2;fontSize=19;fontStyle=1;fontColor=#000000;" parent="PawS9p-MmPTrc8zZ3Hex-0" vertex="1">
          <mxGeometry y="222" width="224" height="49" as="geometry" />
        </mxCell>
        <mxCell id="PawS9p-MmPTrc8zZ3Hex-6" value="publish_date" style="text;strokeColor=#000000;fillColor=none;align=left;verticalAlign=middle;spacingLeft=4;spacingRight=4;overflow=hidden;points=[[0,0.5],[1,0.5]];portConstraint=eastwest;rotatable=0;whiteSpace=wrap;html=1;sketch=1;curveFitting=1;jiggle=2;fontSize=18;fontStyle=1;fontColor=#000000;" parent="PawS9p-MmPTrc8zZ3Hex-0" vertex="1">
          <mxGeometry y="271" width="224" height="41" as="geometry" />
        </mxCell>
        <mxCell id="PawS9p-MmPTrc8zZ3Hex-7" value="&lt;font color=&quot;#ffffff&quot;&gt;USER&lt;/font&gt;" style="swimlane;fontStyle=1;childLayout=stackLayout;horizontal=1;startSize=57;horizontalStack=0;resizeParent=1;resizeParentMax=0;resizeLast=0;collapsible=1;marginBottom=0;whiteSpace=wrap;html=1;sketch=1;curveFitting=1;jiggle=2;fontSize=19;strokeColor=#000000;fontColor=#000000;" parent="WIyWlLk6GJQsqaUBKTNV-1" vertex="1">
          <mxGeometry x="434" y="529" width="200" height="255" as="geometry" />
        </mxCell>
        <mxCell id="PawS9p-MmPTrc8zZ3Hex-8" value="&lt;span style=&quot;font-size: 17px;&quot;&gt;&amp;nbsp;ID&amp;nbsp;&lt;/span&gt;" style="text;strokeColor=#000000;fillColor=none;align=left;verticalAlign=middle;spacingLeft=4;spacingRight=4;overflow=hidden;points=[[0,0.5],[1,0.5]];portConstraint=eastwest;rotatable=0;whiteSpace=wrap;html=1;sketch=1;curveFitting=1;jiggle=2;fontSize=17;fontStyle=1;fontColor=#000000;" parent="PawS9p-MmPTrc8zZ3Hex-7" vertex="1">
          <mxGeometry y="57" width="200" height="34" as="geometry" />
        </mxCell>
        <mxCell id="PawS9p-MmPTrc8zZ3Hex-9" value="username&amp;nbsp;" style="text;strokeColor=#000000;fillColor=none;align=left;verticalAlign=middle;spacingLeft=4;spacingRight=4;overflow=hidden;points=[[0,0.5],[1,0.5]];portConstraint=eastwest;rotatable=0;whiteSpace=wrap;html=1;sketch=1;curveFitting=1;jiggle=2;fontSize=17;fontStyle=1;fontColor=#000000;" parent="PawS9p-MmPTrc8zZ3Hex-7" vertex="1">
          <mxGeometry y="91" width="200" height="30" as="geometry" />
        </mxCell>
        <mxCell id="PawS9p-MmPTrc8zZ3Hex-10" value="email" style="text;strokeColor=#000000;fillColor=none;align=left;verticalAlign=middle;spacingLeft=4;spacingRight=4;overflow=hidden;points=[[0,0.5],[1,0.5]];portConstraint=eastwest;rotatable=0;whiteSpace=wrap;html=1;sketch=1;curveFitting=1;jiggle=2;fontSize=15;fontStyle=1;fontColor=#000000;" parent="PawS9p-MmPTrc8zZ3Hex-7" vertex="1">
          <mxGeometry y="121" width="200" height="30" as="geometry" />
        </mxCell>
        <mxCell id="PawS9p-MmPTrc8zZ3Hex-11" value="password&amp;nbsp;" style="text;strokeColor=#000000;fillColor=none;align=left;verticalAlign=middle;spacingLeft=4;spacingRight=4;overflow=hidden;points=[[0,0.5],[1,0.5]];portConstraint=eastwest;rotatable=0;whiteSpace=wrap;html=1;sketch=1;curveFitting=1;jiggle=2;fontSize=16;fontStyle=1;fontColor=#000000;" parent="PawS9p-MmPTrc8zZ3Hex-7" vertex="1">
          <mxGeometry y="151" width="200" height="30" as="geometry" />
        </mxCell>
        <mxCell id="PawS9p-MmPTrc8zZ3Hex-15" value="role" style="text;strokeColor=#000000;fillColor=none;align=left;verticalAlign=middle;spacingLeft=4;spacingRight=4;overflow=hidden;points=[[0,0.5],[1,0.5]];portConstraint=eastwest;rotatable=0;whiteSpace=wrap;html=1;fontColor=#000000;sketch=1;curveFitting=1;jiggle=2;fontSize=15;fontStyle=1" parent="PawS9p-MmPTrc8zZ3Hex-7" vertex="1">
          <mxGeometry y="181" width="200" height="37" as="geometry" />
        </mxCell>
        <mxCell id="PawS9p-MmPTrc8zZ3Hex-51" value="avatar_id" style="text;strokeColor=#000000;fillColor=none;align=left;verticalAlign=middle;spacingLeft=4;spacingRight=4;overflow=hidden;points=[[0,0.5],[1,0.5]];portConstraint=eastwest;rotatable=0;whiteSpace=wrap;html=1;fontColor=#000000;sketch=1;curveFitting=1;jiggle=2;fontSize=15;fontStyle=1" parent="PawS9p-MmPTrc8zZ3Hex-7" vertex="1">
          <mxGeometry y="218" width="200" height="37" as="geometry" />
        </mxCell>
        <mxCell id="PawS9p-MmPTrc8zZ3Hex-19" value="&lt;font color=&quot;#ffffff&quot;&gt;POST&lt;/font&gt;" style="swimlane;fontStyle=1;childLayout=stackLayout;horizontal=1;startSize=58;horizontalStack=0;resizeParent=1;resizeParentMax=0;resizeLast=0;collapsible=1;marginBottom=0;whiteSpace=wrap;html=1;sketch=1;curveFitting=1;jiggle=2;fontSize=19;strokeColor=#000000;fontColor=#000000;" parent="WIyWlLk6GJQsqaUBKTNV-1" vertex="1">
          <mxGeometry x="950" y="1034" width="232" height="221" as="geometry" />
        </mxCell>
        <mxCell id="PawS9p-MmPTrc8zZ3Hex-20" value="&lt;span style=&quot;font-size: 17px;&quot;&gt;&amp;nbsp;ID&amp;nbsp;&lt;/span&gt;" style="text;strokeColor=#000000;fillColor=none;align=left;verticalAlign=middle;spacingLeft=4;spacingRight=4;overflow=hidden;points=[[0,0.5],[1,0.5]];portConstraint=eastwest;rotatable=0;whiteSpace=wrap;html=1;fontColor=#000000;fontStyle=1;sketch=1;curveFitting=1;jiggle=2;fontSize=17;" parent="PawS9p-MmPTrc8zZ3Hex-19" vertex="1">
          <mxGeometry y="58" width="232" height="37" as="geometry" />
        </mxCell>
        <mxCell id="PawS9p-MmPTrc8zZ3Hex-21" value="title&amp;nbsp;" style="text;strokeColor=#000000;fillColor=none;align=left;verticalAlign=middle;spacingLeft=4;spacingRight=4;overflow=hidden;points=[[0,0.5],[1,0.5]];portConstraint=eastwest;rotatable=0;whiteSpace=wrap;html=1;sketch=1;curveFitting=1;jiggle=2;fontSize=17;fontStyle=1;fontColor=#000000;" parent="PawS9p-MmPTrc8zZ3Hex-19" vertex="1">
          <mxGeometry y="95" width="232" height="30" as="geometry" />
        </mxCell>
        <mxCell id="PawS9p-MmPTrc8zZ3Hex-22" value="description&amp;nbsp;" style="text;strokeColor=#000000;fillColor=none;align=left;verticalAlign=middle;spacingLeft=4;spacingRight=4;overflow=hidden;points=[[0,0.5],[1,0.5]];portConstraint=eastwest;rotatable=0;whiteSpace=wrap;html=1;sketch=1;curveFitting=1;jiggle=2;fontSize=17;fontStyle=1;fontColor=#000000;" parent="PawS9p-MmPTrc8zZ3Hex-19" vertex="1">
          <mxGeometry y="125" width="232" height="30" as="geometry" />
        </mxCell>
        <mxCell id="PawS9p-MmPTrc8zZ3Hex-24" value="publish_date&amp;nbsp;" style="text;strokeColor=#000000;fillColor=none;align=left;verticalAlign=middle;spacingLeft=4;spacingRight=4;overflow=hidden;points=[[0,0.5],[1,0.5]];portConstraint=eastwest;rotatable=0;whiteSpace=wrap;html=1;sketch=1;curveFitting=1;jiggle=2;fontSize=17;fontStyle=1;fontColor=#000000;" parent="PawS9p-MmPTrc8zZ3Hex-19" vertex="1">
          <mxGeometry y="155" width="232" height="36" as="geometry" />
        </mxCell>
        <mxCell id="PawS9p-MmPTrc8zZ3Hex-25" value="author&amp;nbsp;" style="text;strokeColor=#000000;fillColor=none;align=left;verticalAlign=middle;spacingLeft=4;spacingRight=4;overflow=hidden;points=[[0,0.5],[1,0.5]];portConstraint=eastwest;rotatable=0;whiteSpace=wrap;html=1;sketch=1;curveFitting=1;jiggle=2;fontSize=17;fontStyle=1;fontColor=#000000;" parent="PawS9p-MmPTrc8zZ3Hex-19" vertex="1">
          <mxGeometry y="191" width="232" height="30" as="geometry" />
        </mxCell>
        <mxCell id="PawS9p-MmPTrc8zZ3Hex-27" value="REPORT" style="swimlane;fontStyle=1;childLayout=stackLayout;horizontal=1;startSize=57;horizontalStack=0;resizeParent=1;resizeParentMax=0;resizeLast=0;collapsible=1;marginBottom=0;whiteSpace=wrap;html=1;fontSize=20;sketch=1;curveFitting=1;jiggle=2;strokeColor=#000000;" parent="WIyWlLk6GJQsqaUBKTNV-1" vertex="1">
          <mxGeometry x="1039" y="170" width="211" height="258" as="geometry" />
        </mxCell>
        <mxCell id="PawS9p-MmPTrc8zZ3Hex-28" value="&lt;span style=&quot;font-size: 20px;&quot;&gt;&lt;font color=&quot;#000000&quot;&gt;ID&lt;/font&gt;&lt;/span&gt;" style="text;strokeColor=#000000;fillColor=none;align=left;verticalAlign=middle;spacingLeft=4;spacingRight=4;overflow=hidden;points=[[0,0.5],[1,0.5]];portConstraint=eastwest;rotatable=0;whiteSpace=wrap;html=1;sketch=1;curveFitting=1;jiggle=2;fontSize=20;fontStyle=1" parent="PawS9p-MmPTrc8zZ3Hex-27" vertex="1">
          <mxGeometry y="57" width="211" height="32" as="geometry" />
        </mxCell>
        <mxCell id="PawS9p-MmPTrc8zZ3Hex-29" value="reason&amp;nbsp;" style="text;strokeColor=#000000;fillColor=none;align=left;verticalAlign=middle;spacingLeft=4;spacingRight=4;overflow=hidden;points=[[0,0.5],[1,0.5]];portConstraint=eastwest;rotatable=0;whiteSpace=wrap;html=1;sketch=1;curveFitting=1;jiggle=2;fontSize=19;fontStyle=1;fontColor=#000000;" parent="PawS9p-MmPTrc8zZ3Hex-27" vertex="1">
          <mxGeometry y="89" width="211" height="30" as="geometry" />
        </mxCell>
        <mxCell id="PawS9p-MmPTrc8zZ3Hex-30" value="created_at&amp;nbsp;" style="text;strokeColor=#000000;fillColor=none;align=left;verticalAlign=middle;spacingLeft=4;spacingRight=4;overflow=hidden;points=[[0,0.5],[1,0.5]];portConstraint=eastwest;rotatable=0;whiteSpace=wrap;html=1;sketch=1;curveFitting=1;jiggle=2;fontSize=19;fontStyle=1;fontColor=#000000;" parent="PawS9p-MmPTrc8zZ3Hex-27" vertex="1">
          <mxGeometry y="119" width="211" height="34" as="geometry" />
        </mxCell>
        <mxCell id="PawS9p-MmPTrc8zZ3Hex-31" value="status&amp;nbsp;" style="text;strokeColor=#000000;fillColor=none;align=left;verticalAlign=middle;spacingLeft=4;spacingRight=4;overflow=hidden;points=[[0,0.5],[1,0.5]];portConstraint=eastwest;rotatable=0;whiteSpace=wrap;html=1;sketch=1;curveFitting=1;jiggle=2;fontSize=19;fontStyle=1;fontColor=#000000;" parent="PawS9p-MmPTrc8zZ3Hex-27" vertex="1">
          <mxGeometry y="153" width="211" height="41" as="geometry" />
        </mxCell>
        <mxCell id="PawS9p-MmPTrc8zZ3Hex-32" value="&lt;span style=&quot;font-size: 19px;&quot;&gt;user_id&amp;nbsp;&lt;/span&gt;&lt;span style=&quot;font-size: 19px;&quot;&gt;&amp;nbsp;&lt;/span&gt;" style="text;strokeColor=#000000;fillColor=none;align=left;verticalAlign=middle;spacingLeft=4;spacingRight=4;overflow=hidden;points=[[0,0.5],[1,0.5]];portConstraint=eastwest;rotatable=0;whiteSpace=wrap;html=1;sketch=1;curveFitting=1;jiggle=2;fontSize=19;fontStyle=1;fontColor=#000000;" parent="PawS9p-MmPTrc8zZ3Hex-27" vertex="1">
          <mxGeometry y="194" width="211" height="30" as="geometry" />
        </mxCell>
        <mxCell id="PawS9p-MmPTrc8zZ3Hex-33" value="&lt;div style=&quot;font-size: 18px;&quot;&gt;comment_id&lt;/div&gt;" style="text;strokeColor=#000000;fillColor=none;align=left;verticalAlign=middle;spacingLeft=4;spacingRight=4;overflow=hidden;points=[[0,0.5],[1,0.5]];portConstraint=eastwest;rotatable=0;whiteSpace=wrap;html=1;sketch=1;curveFitting=1;jiggle=2;fontSize=18;fontStyle=1;fontColor=#000000;" parent="PawS9p-MmPTrc8zZ3Hex-27" vertex="1">
          <mxGeometry y="224" width="211" height="34" as="geometry" />
        </mxCell>
        <mxCell id="PawS9p-MmPTrc8zZ3Hex-34" value="COMMENT" style="swimlane;fontStyle=1;childLayout=stackLayout;horizontal=1;startSize=57;horizontalStack=0;resizeParent=1;resizeParentMax=0;resizeLast=0;collapsible=1;marginBottom=0;whiteSpace=wrap;html=1;sketch=1;curveFitting=1;jiggle=2;fontSize=20;strokeColor=#000000;" parent="WIyWlLk6GJQsqaUBKTNV-1" vertex="1">
          <mxGeometry x="1589" y="300" width="215" height="319" as="geometry" />
        </mxCell>
        <mxCell id="jy8F_4XN0QknJEXg2ruq-8" style="edgeStyle=orthogonalEdgeStyle;rounded=0;orthogonalLoop=1;jettySize=auto;html=1;entryX=1;entryY=0.5;entryDx=0;entryDy=0;strokeColor=#000000;sketch=1;curveFitting=1;jiggle=2;strokeWidth=2;" edge="1" parent="PawS9p-MmPTrc8zZ3Hex-34" source="PawS9p-MmPTrc8zZ3Hex-35" target="jy8F_4XN0QknJEXg2ruq-7">
          <mxGeometry relative="1" as="geometry">
            <Array as="points">
              <mxPoint x="281" y="76" />
              <mxPoint x="281" y="188" />
              <mxPoint x="283" y="188" />
              <mxPoint x="283" y="300" />
            </Array>
          </mxGeometry>
        </mxCell>
        <mxCell id="PawS9p-MmPTrc8zZ3Hex-35" value="&lt;span style=&quot;font-size: 17px;&quot;&gt;ID&amp;nbsp;&lt;/span&gt;" style="text;strokeColor=#000000;fillColor=none;align=left;verticalAlign=middle;spacingLeft=4;spacingRight=4;overflow=hidden;points=[[0,0.5],[1,0.5]];portConstraint=eastwest;rotatable=0;whiteSpace=wrap;html=1;sketch=1;curveFitting=1;jiggle=2;fontSize=17;fontStyle=1;fontColor=#000000;" parent="PawS9p-MmPTrc8zZ3Hex-34" vertex="1">
          <mxGeometry y="57" width="215" height="37" as="geometry" />
        </mxCell>
        <mxCell id="PawS9p-MmPTrc8zZ3Hex-36" value="message" style="text;strokeColor=#000000;fillColor=none;align=left;verticalAlign=middle;spacingLeft=4;spacingRight=4;overflow=hidden;points=[[0,0.5],[1,0.5]];portConstraint=eastwest;rotatable=0;whiteSpace=wrap;html=1;sketch=1;curveFitting=1;jiggle=2;fontSize=17;fontStyle=1;fontColor=#000000;" parent="PawS9p-MmPTrc8zZ3Hex-34" vertex="1">
          <mxGeometry y="94" width="215" height="40" as="geometry" />
        </mxCell>
        <mxCell id="PawS9p-MmPTrc8zZ3Hex-38" value="created_at" style="text;strokeColor=#000000;fillColor=none;align=left;verticalAlign=middle;spacingLeft=4;spacingRight=4;overflow=hidden;points=[[0,0.5],[1,0.5]];portConstraint=eastwest;rotatable=0;whiteSpace=wrap;html=1;sketch=1;curveFitting=1;jiggle=2;fontSize=17;fontStyle=1;fontColor=#000000;" parent="PawS9p-MmPTrc8zZ3Hex-34" vertex="1">
          <mxGeometry y="134" width="215" height="37" as="geometry" />
        </mxCell>
        <mxCell id="PawS9p-MmPTrc8zZ3Hex-39" value="status" style="text;strokeColor=#000000;fillColor=none;align=left;verticalAlign=middle;spacingLeft=4;spacingRight=4;overflow=hidden;points=[[0,0.5],[1,0.5]];portConstraint=eastwest;rotatable=0;whiteSpace=wrap;html=1;sketch=1;curveFitting=1;jiggle=2;fontSize=17;fontStyle=1;fontColor=#000000;" parent="PawS9p-MmPTrc8zZ3Hex-34" vertex="1">
          <mxGeometry y="171" width="215" height="34" as="geometry" />
        </mxCell>
        <mxCell id="PawS9p-MmPTrc8zZ3Hex-41" value="&lt;font style=&quot;font-size: 17px;&quot;&gt;post_id&amp;nbsp;&lt;/font&gt;" style="text;strokeColor=#000000;fillColor=none;align=left;verticalAlign=middle;spacingLeft=4;spacingRight=4;overflow=hidden;points=[[0,0.5],[1,0.5]];portConstraint=eastwest;rotatable=0;whiteSpace=wrap;html=1;sketch=1;curveFitting=1;jiggle=2;fontSize=17;fontStyle=1;fontColor=#000000;" parent="PawS9p-MmPTrc8zZ3Hex-34" vertex="1">
          <mxGeometry y="205" width="215" height="38" as="geometry" />
        </mxCell>
        <mxCell id="PawS9p-MmPTrc8zZ3Hex-40" value="user_id&amp;nbsp;&lt;span style=&quot;font-size: 17px;&quot;&gt;&amp;nbsp;&lt;/span&gt;" style="text;strokeColor=#000000;fillColor=none;align=left;verticalAlign=middle;spacingLeft=4;spacingRight=4;overflow=hidden;points=[[0,0.5],[1,0.5]];portConstraint=eastwest;rotatable=0;whiteSpace=wrap;html=1;fontColor=#000000;sketch=1;curveFitting=1;jiggle=2;fontSize=17;fontStyle=1" parent="PawS9p-MmPTrc8zZ3Hex-34" vertex="1">
          <mxGeometry y="243" width="215" height="39" as="geometry" />
        </mxCell>
        <mxCell id="jy8F_4XN0QknJEXg2ruq-7" value="parent_id" style="text;strokeColor=#000000;fillColor=none;align=left;verticalAlign=middle;spacingLeft=4;spacingRight=4;overflow=hidden;points=[[0,0.5],[1,0.5]];portConstraint=eastwest;rotatable=0;whiteSpace=wrap;html=1;sketch=1;curveFitting=1;jiggle=2;fontSize=17;fontStyle=1;fontColor=#000000;" vertex="1" parent="PawS9p-MmPTrc8zZ3Hex-34">
          <mxGeometry y="282" width="215" height="37" as="geometry" />
        </mxCell>
        <mxCell id="PawS9p-MmPTrc8zZ3Hex-42" value="&lt;font color=&quot;#ffffff&quot;&gt;CATEGORY&lt;/font&gt;" style="swimlane;fontStyle=1;childLayout=stackLayout;horizontal=1;startSize=60;horizontalStack=0;resizeParent=1;resizeParentMax=0;resizeLast=0;collapsible=1;marginBottom=0;whiteSpace=wrap;html=1;sketch=1;curveFitting=1;jiggle=2;fontSize=19;strokeColor=#000000;fontColor=#000000;" parent="WIyWlLk6GJQsqaUBKTNV-1" vertex="1">
          <mxGeometry x="1640" y="877" width="161" height="133" as="geometry" />
        </mxCell>
        <mxCell id="PawS9p-MmPTrc8zZ3Hex-43" value="&lt;span style=&quot;font-size: 17px;&quot;&gt;ID&amp;nbsp;&lt;/span&gt;" style="text;strokeColor=#000000;fillColor=none;align=left;verticalAlign=middle;spacingLeft=4;spacingRight=4;overflow=hidden;points=[[0,0.5],[1,0.5]];portConstraint=eastwest;rotatable=0;whiteSpace=wrap;html=1;labelBorderColor=none;sketch=1;curveFitting=1;jiggle=2;fontSize=17;fontStyle=1;fontColor=#000000;" parent="PawS9p-MmPTrc8zZ3Hex-42" vertex="1">
          <mxGeometry y="60" width="161" height="35" as="geometry" />
        </mxCell>
        <mxCell id="PawS9p-MmPTrc8zZ3Hex-44" value="label&amp;nbsp;" style="text;strokeColor=#000000;fillColor=none;align=left;verticalAlign=middle;spacingLeft=0;spacingRight=4;overflow=hidden;points=[[0,0.5],[1,0.5]];portConstraint=eastwest;rotatable=0;whiteSpace=wrap;html=1;sketch=1;curveFitting=1;jiggle=2;fontSize=17;fontStyle=1;fontColor=#000000;" parent="PawS9p-MmPTrc8zZ3Hex-42" vertex="1">
          <mxGeometry y="95" width="161" height="38" as="geometry" />
        </mxCell>
        <mxCell id="PawS9p-MmPTrc8zZ3Hex-45" value="&lt;font color=&quot;#ffffff&quot;&gt;POST_CATEGORY&lt;/font&gt;" style="swimlane;fontStyle=1;childLayout=stackLayout;horizontal=1;startSize=47;horizontalStack=0;resizeParent=1;resizeParentMax=0;resizeLast=0;collapsible=1;marginBottom=0;whiteSpace=wrap;html=1;sketch=1;curveFitting=1;jiggle=2;fontSize=20;strokeColor=#000000;fontColor=#000000;" parent="WIyWlLk6GJQsqaUBKTNV-1" vertex="1">
          <mxGeometry x="1468" y="1160" width="214" height="125" as="geometry" />
        </mxCell>
        <mxCell id="PawS9p-MmPTrc8zZ3Hex-47" value="post_id" style="text;strokeColor=#000000;fillColor=none;align=left;verticalAlign=middle;spacingLeft=4;spacingRight=4;overflow=hidden;points=[[0,0.5],[1,0.5]];portConstraint=eastwest;rotatable=0;whiteSpace=wrap;html=1;fontColor=#000000;sketch=1;curveFitting=1;jiggle=2;fontSize=17;fontStyle=1" parent="PawS9p-MmPTrc8zZ3Hex-45" vertex="1">
          <mxGeometry y="47" width="214" height="38" as="geometry" />
        </mxCell>
        <mxCell id="PawS9p-MmPTrc8zZ3Hex-46" value="category_id&amp;nbsp;" style="text;strokeColor=#000000;fillColor=none;align=left;verticalAlign=middle;spacingLeft=4;spacingRight=4;overflow=hidden;points=[[0,0.5],[1,0.5]];portConstraint=eastwest;rotatable=0;whiteSpace=wrap;html=1;fontColor=#000000;sketch=1;curveFitting=1;jiggle=2;fontSize=17;fontStyle=1" parent="PawS9p-MmPTrc8zZ3Hex-45" vertex="1">
          <mxGeometry y="85" width="214" height="40" as="geometry" />
        </mxCell>
        <mxCell id="PawS9p-MmPTrc8zZ3Hex-48" value="&lt;font color=&quot;#ffffff&quot;&gt;AVATAR&lt;/font&gt;" style="swimlane;fontStyle=1;childLayout=stackLayout;horizontal=1;startSize=60;horizontalStack=0;resizeParent=1;resizeParentMax=0;resizeLast=0;collapsible=1;marginBottom=0;whiteSpace=wrap;html=1;sketch=1;curveFitting=1;jiggle=2;fontSize=19;strokeColor=#000000;fontColor=#000000;" parent="WIyWlLk6GJQsqaUBKTNV-1" vertex="1">
          <mxGeometry x="612" y="986" width="161" height="133" as="geometry" />
        </mxCell>
        <mxCell id="PawS9p-MmPTrc8zZ3Hex-49" value="&lt;span style=&quot;font-size: 17px;&quot;&gt;ID&amp;nbsp;&lt;/span&gt;" style="text;strokeColor=#000000;fillColor=none;align=left;verticalAlign=middle;spacingLeft=4;spacingRight=4;overflow=hidden;points=[[0,0.5],[1,0.5]];portConstraint=eastwest;rotatable=0;whiteSpace=wrap;html=1;labelBorderColor=none;sketch=1;curveFitting=1;jiggle=2;fontSize=17;fontStyle=1;fontColor=#000000;" parent="PawS9p-MmPTrc8zZ3Hex-48" vertex="1">
          <mxGeometry y="60" width="161" height="35" as="geometry" />
        </mxCell>
        <mxCell id="PawS9p-MmPTrc8zZ3Hex-50" value="label&amp;nbsp;" style="text;strokeColor=#000000;fillColor=none;align=left;verticalAlign=middle;spacingLeft=0;spacingRight=4;overflow=hidden;points=[[0,0.5],[1,0.5]];portConstraint=eastwest;rotatable=0;whiteSpace=wrap;html=1;sketch=1;curveFitting=1;jiggle=2;fontSize=17;fontStyle=1;fontColor=#000000;" parent="PawS9p-MmPTrc8zZ3Hex-48" vertex="1">
          <mxGeometry y="95" width="161" height="38" as="geometry" />
        </mxCell>
        <mxCell id="PawS9p-MmPTrc8zZ3Hex-52" value="&lt;font color=&quot;#ffffff&quot;&gt;SESSIONS&lt;/font&gt;" style="swimlane;fontStyle=1;childLayout=stackLayout;horizontal=1;startSize=60;horizontalStack=0;resizeParent=1;resizeParentMax=0;resizeLast=0;collapsible=1;marginBottom=0;whiteSpace=wrap;html=1;sketch=1;curveFitting=1;jiggle=2;fontSize=19;strokeColor=#000000;fontColor=#000000;" parent="WIyWlLk6GJQsqaUBKTNV-1" vertex="1">
          <mxGeometry x="117" y="1078" width="161" height="171" as="geometry" />
        </mxCell>
        <mxCell id="PawS9p-MmPTrc8zZ3Hex-53" value="session_id" style="text;strokeColor=#000000;fillColor=none;align=left;verticalAlign=middle;spacingLeft=4;spacingRight=4;overflow=hidden;points=[[0,0.5],[1,0.5]];portConstraint=eastwest;rotatable=0;whiteSpace=wrap;html=1;labelBorderColor=none;sketch=1;curveFitting=1;jiggle=2;fontSize=17;fontStyle=1;fontColor=#000000;" parent="PawS9p-MmPTrc8zZ3Hex-52" vertex="1">
          <mxGeometry y="60" width="161" height="35" as="geometry" />
        </mxCell>
        <mxCell id="PawS9p-MmPTrc8zZ3Hex-54" value="expires" style="text;strokeColor=#000000;fillColor=none;align=left;verticalAlign=middle;spacingLeft=0;spacingRight=4;overflow=hidden;points=[[0,0.5],[1,0.5]];portConstraint=eastwest;rotatable=0;whiteSpace=wrap;html=1;sketch=1;curveFitting=1;jiggle=2;fontSize=17;fontStyle=1;fontColor=#000000;" parent="PawS9p-MmPTrc8zZ3Hex-52" vertex="1">
          <mxGeometry y="95" width="161" height="38" as="geometry" />
        </mxCell>
        <mxCell id="PawS9p-MmPTrc8zZ3Hex-55" value="data" style="text;strokeColor=#000000;fillColor=none;align=left;verticalAlign=middle;spacingLeft=0;spacingRight=4;overflow=hidden;points=[[0,0.5],[1,0.5]];portConstraint=eastwest;rotatable=0;whiteSpace=wrap;html=1;sketch=1;curveFitting=1;jiggle=2;fontSize=17;fontStyle=1;fontColor=#000000;" parent="PawS9p-MmPTrc8zZ3Hex-52" vertex="1">
          <mxGeometry y="133" width="161" height="38" as="geometry" />
        </mxCell>
        <mxCell id="PawS9p-MmPTrc8zZ3Hex-56" value="&lt;font color=&quot;#ffffff&quot;&gt;IMAGE&lt;/font&gt;" style="swimlane;fontStyle=1;childLayout=stackLayout;horizontal=1;startSize=60;horizontalStack=0;resizeParent=1;resizeParentMax=0;resizeLast=0;collapsible=1;marginBottom=0;whiteSpace=wrap;html=1;sketch=1;curveFitting=1;jiggle=2;fontSize=19;strokeColor=#000000;fontColor=#000000;" parent="WIyWlLk6GJQsqaUBKTNV-1" vertex="1">
          <mxGeometry x="928" y="703" width="161" height="171" as="geometry" />
        </mxCell>
        <mxCell id="PawS9p-MmPTrc8zZ3Hex-57" value="&lt;span style=&quot;font-size: 17px;&quot;&gt;ID&amp;nbsp;&lt;/span&gt;" style="text;strokeColor=#000000;fillColor=none;align=left;verticalAlign=middle;spacingLeft=4;spacingRight=4;overflow=hidden;points=[[0,0.5],[1,0.5]];portConstraint=eastwest;rotatable=0;whiteSpace=wrap;html=1;labelBorderColor=none;sketch=1;curveFitting=1;jiggle=2;fontSize=17;fontStyle=1;fontColor=#000000;" parent="PawS9p-MmPTrc8zZ3Hex-56" vertex="1">
          <mxGeometry y="60" width="161" height="35" as="geometry" />
        </mxCell>
        <mxCell id="PawS9p-MmPTrc8zZ3Hex-58" value="url" style="text;strokeColor=#000000;fillColor=none;align=left;verticalAlign=middle;spacingLeft=0;spacingRight=4;overflow=hidden;points=[[0,0.5],[1,0.5]];portConstraint=eastwest;rotatable=0;whiteSpace=wrap;html=1;sketch=1;curveFitting=1;jiggle=2;fontSize=17;fontStyle=1;fontColor=#000000;" parent="PawS9p-MmPTrc8zZ3Hex-56" vertex="1">
          <mxGeometry y="95" width="161" height="38" as="geometry" />
        </mxCell>
        <mxCell id="PawS9p-MmPTrc8zZ3Hex-59" value="post_id" style="text;strokeColor=#000000;fillColor=none;align=left;verticalAlign=middle;spacingLeft=0;spacingRight=4;overflow=hidden;points=[[0,0.5],[1,0.5]];portConstraint=eastwest;rotatable=0;whiteSpace=wrap;html=1;sketch=1;curveFitting=1;jiggle=2;fontSize=17;fontStyle=1;fontColor=#000000;" parent="PawS9p-MmPTrc8zZ3Hex-56" vertex="1">
          <mxGeometry y="133" width="161" height="38" as="geometry" />
        </mxCell>
        <mxCell id="PawS9p-MmPTrc8zZ3Hex-64" value="&lt;font color=&quot;#000000&quot;&gt;1,N&lt;/font&gt;" style="text;strokeColor=none;align=center;fillColor=none;html=1;verticalAlign=middle;whiteSpace=wrap;rounded=0;fontColor=#00CCCC;fontSize=19;fontStyle=1" parent="WIyWlLk6GJQsqaUBKTNV-1" vertex="1">
          <mxGeometry x="539" y="1074" width="60" height="30" as="geometry" />
        </mxCell>
        <mxCell id="PawS9p-MmPTrc8zZ3Hex-65" style="edgeStyle=orthogonalEdgeStyle;rounded=0;orthogonalLoop=1;jettySize=auto;html=1;exitX=0;exitY=0.5;exitDx=0;exitDy=0;entryX=0;entryY=0.5;entryDx=0;entryDy=0;strokeWidth=2;strokeColor=#000000;sketch=1;curveFitting=1;jiggle=2;" parent="WIyWlLk6GJQsqaUBKTNV-1" source="PawS9p-MmPTrc8zZ3Hex-49" target="PawS9p-MmPTrc8zZ3Hex-51" edge="1">
          <mxGeometry relative="1" as="geometry" />
        </mxCell>
        <mxCell id="PawS9p-MmPTrc8zZ3Hex-66" value="&lt;font color=&quot;#000000&quot;&gt;1,1&lt;/font&gt;" style="text;strokeColor=none;align=center;fillColor=none;html=1;verticalAlign=middle;whiteSpace=wrap;rounded=0;fontColor=#00CCCC;fontSize=19;fontStyle=1" parent="WIyWlLk6GJQsqaUBKTNV-1" vertex="1">
          <mxGeometry x="368" y="733" width="60" height="30" as="geometry" />
        </mxCell>
        <mxCell id="PawS9p-MmPTrc8zZ3Hex-78" value="&lt;font color=&quot;#000000&quot;&gt;1,1&lt;/font&gt;" style="text;strokeColor=none;align=center;fillColor=none;html=1;verticalAlign=middle;whiteSpace=wrap;rounded=0;fontColor=#00CCCC;fontSize=19;fontStyle=1" parent="WIyWlLk6GJQsqaUBKTNV-1" vertex="1">
          <mxGeometry x="864" y="821" width="60" height="22" as="geometry" />
        </mxCell>
        <mxCell id="PawS9p-MmPTrc8zZ3Hex-79" value="&lt;font color=&quot;#000000&quot;&gt;1,N&lt;/font&gt;" style="text;strokeColor=none;align=center;fillColor=none;html=1;verticalAlign=middle;whiteSpace=wrap;rounded=0;fontColor=#00CCCC;fontSize=19;fontStyle=1" parent="WIyWlLk6GJQsqaUBKTNV-1" vertex="1">
          <mxGeometry x="890" y="1117" width="60" height="30" as="geometry" />
        </mxCell>
        <mxCell id="PawS9p-MmPTrc8zZ3Hex-81" style="edgeStyle=orthogonalEdgeStyle;rounded=0;orthogonalLoop=1;jettySize=auto;html=1;entryX=0;entryY=0.5;entryDx=0;entryDy=0;sketch=1;curveFitting=1;jiggle=2;strokeColor=#000000;strokeWidth=2;" parent="WIyWlLk6GJQsqaUBKTNV-1" source="PawS9p-MmPTrc8zZ3Hex-20" target="PawS9p-MmPTrc8zZ3Hex-59" edge="1">
          <mxGeometry relative="1" as="geometry" />
        </mxCell>
        <mxCell id="PawS9p-MmPTrc8zZ3Hex-85" style="edgeStyle=orthogonalEdgeStyle;rounded=0;orthogonalLoop=1;jettySize=auto;html=1;exitX=1;exitY=0.5;exitDx=0;exitDy=0;entryX=0;entryY=0.5;entryDx=0;entryDy=0;sketch=1;curveFitting=1;jiggle=2;strokeColor=#000000;strokeWidth=2;" parent="WIyWlLk6GJQsqaUBKTNV-1" source="PawS9p-MmPTrc8zZ3Hex-8" target="PawS9p-MmPTrc8zZ3Hex-32" edge="1">
          <mxGeometry relative="1" as="geometry" />
        </mxCell>
        <mxCell id="PawS9p-MmPTrc8zZ3Hex-87" style="edgeStyle=orthogonalEdgeStyle;rounded=0;orthogonalLoop=1;jettySize=auto;html=1;entryX=-0.002;entryY=0.616;entryDx=0;entryDy=0;strokeColor=#000000;strokeWidth=2;sketch=1;curveFitting=1;jiggle=2;entryPerimeter=0;" parent="WIyWlLk6GJQsqaUBKTNV-1" source="PawS9p-MmPTrc8zZ3Hex-20" target="PawS9p-MmPTrc8zZ3Hex-47" edge="1">
          <mxGeometry relative="1" as="geometry">
            <Array as="points">
              <mxPoint x="1325" y="1114" />
              <mxPoint x="1325" y="1231" />
              <mxPoint x="1468" y="1231" />
            </Array>
          </mxGeometry>
        </mxCell>
        <mxCell id="PawS9p-MmPTrc8zZ3Hex-88" style="edgeStyle=orthogonalEdgeStyle;rounded=0;orthogonalLoop=1;jettySize=auto;html=1;entryX=1.006;entryY=0.51;entryDx=0;entryDy=0;sketch=1;curveFitting=1;jiggle=2;strokeColor=#000000;strokeWidth=2;exitX=1;exitY=0.5;exitDx=0;exitDy=0;entryPerimeter=0;" parent="WIyWlLk6GJQsqaUBKTNV-1" source="PawS9p-MmPTrc8zZ3Hex-43" target="PawS9p-MmPTrc8zZ3Hex-46" edge="1">
          <mxGeometry relative="1" as="geometry">
            <Array as="points">
              <mxPoint x="1801" y="949" />
              <mxPoint x="1928" y="949" />
              <mxPoint x="1928" y="1136" />
              <mxPoint x="1791" y="1136" />
              <mxPoint x="1791" y="1266" />
              <mxPoint x="1683" y="1266" />
            </Array>
          </mxGeometry>
        </mxCell>
        <mxCell id="PawS9p-MmPTrc8zZ3Hex-89" style="edgeStyle=orthogonalEdgeStyle;rounded=0;orthogonalLoop=1;jettySize=auto;html=1;entryX=-0.003;entryY=0.278;entryDx=0;entryDy=0;entryPerimeter=0;strokeColor=#000000;strokeWidth=2;sketch=1;curveFitting=1;jiggle=2;" parent="WIyWlLk6GJQsqaUBKTNV-1" source="PawS9p-MmPTrc8zZ3Hex-8" target="PawS9p-MmPTrc8zZ3Hex-40" edge="1">
          <mxGeometry relative="1" as="geometry" />
        </mxCell>
        <mxCell id="PawS9p-MmPTrc8zZ3Hex-91" style="edgeStyle=orthogonalEdgeStyle;rounded=0;orthogonalLoop=1;jettySize=auto;html=1;entryX=0;entryY=0.5;entryDx=0;entryDy=0;strokeWidth=2;strokeColor=#000000;sketch=1;curveFitting=1;jiggle=2;" parent="WIyWlLk6GJQsqaUBKTNV-1" source="PawS9p-MmPTrc8zZ3Hex-20" target="PawS9p-MmPTrc8zZ3Hex-41" edge="1">
          <mxGeometry relative="1" as="geometry" />
        </mxCell>
        <mxCell id="PawS9p-MmPTrc8zZ3Hex-92" value="&lt;font color=&quot;#000000&quot;&gt;1,N&lt;/font&gt;" style="text;strokeColor=none;align=center;fillColor=none;html=1;verticalAlign=middle;whiteSpace=wrap;rounded=0;fontColor=#00CCCC;fontSize=19;fontStyle=1" parent="WIyWlLk6GJQsqaUBKTNV-1" vertex="1">
          <mxGeometry x="1190" y="1074" width="60" height="30" as="geometry" />
        </mxCell>
        <mxCell id="PawS9p-MmPTrc8zZ3Hex-93" value="&lt;font color=&quot;#000000&quot;&gt;1,N&lt;/font&gt;" style="text;strokeColor=none;align=center;fillColor=none;html=1;verticalAlign=middle;whiteSpace=wrap;rounded=0;fontColor=#00CCCC;fontSize=19;fontStyle=1" parent="WIyWlLk6GJQsqaUBKTNV-1" vertex="1">
          <mxGeometry x="1799" y="914" width="60" height="30" as="geometry" />
        </mxCell>
        <mxCell id="PawS9p-MmPTrc8zZ3Hex-94" value="&lt;font color=&quot;#000000&quot;&gt;1,1&lt;/font&gt;" style="text;strokeColor=none;align=center;fillColor=none;html=1;verticalAlign=middle;whiteSpace=wrap;rounded=0;fontColor=#00CCCC;fontSize=19;fontStyle=1" parent="WIyWlLk6GJQsqaUBKTNV-1" vertex="1">
          <mxGeometry x="1403" y="1245" width="60" height="22" as="geometry" />
        </mxCell>
        <mxCell id="PawS9p-MmPTrc8zZ3Hex-96" value="&lt;font color=&quot;#000000&quot;&gt;1,1&lt;/font&gt;" style="text;strokeColor=none;align=center;fillColor=none;html=1;verticalAlign=middle;whiteSpace=wrap;rounded=0;fontColor=#00CCCC;fontSize=19;fontStyle=1" parent="WIyWlLk6GJQsqaUBKTNV-1" vertex="1">
          <mxGeometry x="1682" y="1238" width="60" height="22" as="geometry" />
        </mxCell>
        <mxCell id="PawS9p-MmPTrc8zZ3Hex-97" value="&lt;font color=&quot;#000000&quot;&gt;1,1&lt;/font&gt;" style="text;strokeColor=none;align=center;fillColor=none;html=1;verticalAlign=middle;whiteSpace=wrap;rounded=0;fontColor=#00CCCC;fontSize=19;fontStyle=1" parent="WIyWlLk6GJQsqaUBKTNV-1" vertex="1">
          <mxGeometry x="1525" y="564" width="60" height="22" as="geometry" />
        </mxCell>
        <mxCell id="PawS9p-MmPTrc8zZ3Hex-98" value="&lt;font color=&quot;#000000&quot;&gt;1,1&lt;/font&gt;" style="text;strokeColor=none;align=center;fillColor=none;html=1;verticalAlign=middle;whiteSpace=wrap;rounded=0;fontColor=#00CCCC;fontSize=19;fontStyle=1" parent="WIyWlLk6GJQsqaUBKTNV-1" vertex="1">
          <mxGeometry x="1525" y="497" width="60" height="22" as="geometry" />
        </mxCell>
        <mxCell id="PawS9p-MmPTrc8zZ3Hex-99" value="&lt;font color=&quot;#000000&quot;&gt;1,1&lt;/font&gt;" style="text;strokeColor=none;align=center;fillColor=none;html=1;verticalAlign=middle;whiteSpace=wrap;rounded=0;fontColor=#00CCCC;fontSize=19;fontStyle=1" parent="WIyWlLk6GJQsqaUBKTNV-1" vertex="1">
          <mxGeometry x="979" y="348" width="60" height="22" as="geometry" />
        </mxCell>
        <mxCell id="PawS9p-MmPTrc8zZ3Hex-101" style="edgeStyle=orthogonalEdgeStyle;rounded=0;orthogonalLoop=1;jettySize=auto;html=1;exitX=0.5;exitY=1;exitDx=0;exitDy=0;" parent="WIyWlLk6GJQsqaUBKTNV-1" source="PawS9p-MmPTrc8zZ3Hex-97" target="PawS9p-MmPTrc8zZ3Hex-97" edge="1">
          <mxGeometry relative="1" as="geometry" />
        </mxCell>
        <mxCell id="PawS9p-MmPTrc8zZ3Hex-102" value="&lt;font color=&quot;#000000&quot;&gt;1,N&lt;/font&gt;" style="text;strokeColor=none;align=center;fillColor=none;html=1;verticalAlign=middle;whiteSpace=wrap;rounded=0;fontColor=#00CCCC;fontSize=19;fontStyle=1" parent="WIyWlLk6GJQsqaUBKTNV-1" vertex="1">
          <mxGeometry x="637" y="568" width="60" height="30" as="geometry" />
        </mxCell>
        <mxCell id="PawS9p-MmPTrc8zZ3Hex-103" value="&lt;font color=&quot;#000000&quot;&gt;1,N&lt;/font&gt;" style="text;strokeColor=none;align=center;fillColor=none;html=1;verticalAlign=middle;whiteSpace=wrap;rounded=0;fontColor=#00CCCC;fontSize=19;fontStyle=1" parent="WIyWlLk6GJQsqaUBKTNV-1" vertex="1">
          <mxGeometry x="637" y="613" width="60" height="30" as="geometry" />
        </mxCell>
        <mxCell id="PawS9p-MmPTrc8zZ3Hex-104" style="edgeStyle=orthogonalEdgeStyle;rounded=0;orthogonalLoop=1;jettySize=auto;html=1;entryX=1;entryY=0.5;entryDx=0;entryDy=0;strokeWidth=2;strokeColor=#000000;sketch=1;curveFitting=1;jiggle=2;" parent="WIyWlLk6GJQsqaUBKTNV-1" source="PawS9p-MmPTrc8zZ3Hex-35" target="PawS9p-MmPTrc8zZ3Hex-33" edge="1">
          <mxGeometry relative="1" as="geometry" />
        </mxCell>
        <mxCell id="PawS9p-MmPTrc8zZ3Hex-105" value="&lt;font color=&quot;#000000&quot;&gt;1,1&lt;/font&gt;" style="text;strokeColor=none;align=center;fillColor=none;html=1;verticalAlign=middle;whiteSpace=wrap;rounded=0;fontColor=#00CCCC;fontSize=19;fontStyle=1" parent="WIyWlLk6GJQsqaUBKTNV-1" vertex="1">
          <mxGeometry x="1254" y="381" width="60" height="22" as="geometry" />
        </mxCell>
        <mxCell id="PawS9p-MmPTrc8zZ3Hex-106" value="&lt;font color=&quot;#000000&quot;&gt;1,N&lt;/font&gt;" style="text;strokeColor=none;align=center;fillColor=none;html=1;verticalAlign=middle;whiteSpace=wrap;rounded=0;fontColor=#00CCCC;fontSize=19;fontStyle=1" parent="WIyWlLk6GJQsqaUBKTNV-1" vertex="1">
          <mxGeometry x="1525" y="340" width="60" height="30" as="geometry" />
        </mxCell>
        <mxCell id="jy8F_4XN0QknJEXg2ruq-1" value="&lt;font color=&quot;#000000&quot;&gt;1,N&lt;/font&gt;" style="text;strokeColor=none;align=center;fillColor=none;html=1;verticalAlign=middle;whiteSpace=wrap;rounded=0;fontColor=#00CCCC;fontSize=19;fontStyle=1" vertex="1" parent="WIyWlLk6GJQsqaUBKTNV-1">
          <mxGeometry x="1811" y="340" width="60" height="30" as="geometry" />
        </mxCell>
        <mxCell id="jy8F_4XN0QknJEXg2ruq-2" value="&lt;font color=&quot;#000000&quot;&gt;1,1&lt;/font&gt;" style="text;strokeColor=none;align=center;fillColor=none;html=1;verticalAlign=middle;whiteSpace=wrap;rounded=0;fontColor=#00CCCC;fontSize=19;fontStyle=1" vertex="1" parent="WIyWlLk6GJQsqaUBKTNV-1">
          <mxGeometry x="1811" y="576" width="60" height="22" as="geometry" />
        </mxCell>
        <mxCell id="jy8F_4XN0QknJEXg2ruq-3" value="user_id&amp;nbsp;&lt;span style=&quot;font-size: 17px;&quot;&gt;&amp;nbsp;&lt;/span&gt;" style="text;strokeColor=#000000;fillColor=none;align=left;verticalAlign=middle;spacingLeft=4;spacingRight=4;overflow=hidden;points=[[0,0.5],[1,0.5]];portConstraint=eastwest;rotatable=1;whiteSpace=wrap;html=1;fontColor=#000000;sketch=1;curveFitting=1;jiggle=2;fontSize=17;fontStyle=1;movable=1;resizable=1;deletable=1;editable=1;locked=0;connectable=1;" vertex="1" parent="WIyWlLk6GJQsqaUBKTNV-1">
          <mxGeometry x="1589" y="543" width="215" height="39" as="geometry" />
        </mxCell>
      </root>
    </mxGraphModel>
  </diagram>
</mxfile>
